<svg version="1.1" xmlns="http://www.w3.org/2000/svg" viewBox="0 0 873 214" width="1746" height="428">
  <!-- svg-source:excalidraw -->
  
  <defs>
    <style class="style-fonts">
      @font-face {
        font-family: "Virgil";
        src: url("https://excalidraw.com/Virgil.woff2");
      }
      @font-face {
        font-family: "Cascadia";
        src: url("https://excalidraw.com/Cascadia.woff2");
      }
      @font-face {
        font-family: "Assistant";
        src: url("https://excalidraw.com/Assistant-Regular.woff2");
      }
    </style>
    
  </defs>
  <g stroke-linecap="round" transform="translate(362 10) rotate(0 75 37.5)"><path d="M18.75 0 C54.2 -0.32, 93.61 -1.46, 131.25 0 M18.75 0 C46.23 1, 74.56 0.03, 131.25 0 M131.25 0 C143.75 0.07, 149.31 6.47, 150 18.75 M131.25 0 C145.18 -1.78, 148.1 7.88, 150 18.75 M150 18.75 C152.15 30.91, 151.48 44.6, 150 56.25 M150 18.75 C150.4 30.31, 150.53 40.21, 150 56.25 M150 56.25 C150.22 67.2, 145.2 73.5, 131.25 75 M150 56.25 C148.71 68.76, 145.24 76.53, 131.25 75 M131.25 75 C102.24 76.21, 75.07 76.96, 18.75 75 M131.25 75 C108.79 75.88, 83.86 75.36, 18.75 75 M18.75 75 C5.09 73.96, 1.53 69.73, 0 56.25 M18.75 75 C4.89 76.89, 1.1 69.7, 0 56.25 M0 56.25 C0.09 43.01, 1.09 28.86, 0 18.75 M0 56.25 C-0.32 42.78, -0.52 31.39, 0 18.75 M0 18.75 C0.81 5.63, 7.29 -0.88, 18.75 0 M0 18.75 C-2.11 4.46, 5.19 -1.63, 18.75 0" stroke="#1e1e1e" stroke-width="2" fill="none"></path></g><g transform="translate(392.71666717529297 35) rotate(0 44.28333282470703 12.5)"><text x="44.28333282470703" y="17.52" font-family="Virgil, Segoe UI Emoji" font-size="20px" fill="#1e1e1e" text-anchor="middle" style="white-space: pre;" direction="ltr" dominant-baseline="alphabetic">interface</text></g><g stroke-linecap="round" transform="translate(657 136) rotate(0 103 29)"><path d="M14.5 0 C71.72 1.97, 126.52 0.18, 191.5 0 M14.5 0 C78.9 -0.33, 142.87 -0.32, 191.5 0 M191.5 0 C200.09 -1.45, 204.82 5.26, 206 14.5 M191.5 0 C200.34 -1.01, 204.95 6.42, 206 14.5 M206 14.5 C207.44 22.96, 207.2 28.32, 206 43.5 M206 14.5 C205.27 22.91, 206.45 30.61, 206 43.5 M206 43.5 C207.26 52.32, 202.54 57.28, 191.5 58 M206 43.5 C207 55.23, 199.9 56.85, 191.5 58 M191.5 58 C134.68 59.25, 74.15 60.93, 14.5 58 M191.5 58 C138.53 57.25, 83.46 56.3, 14.5 58 M14.5 58 C5.25 59.6, 0.87 54.43, 0 43.5 M14.5 58 C6.83 57.23, -0.31 52.58, 0 43.5 M0 43.5 C-1.21 35.22, -1.33 28.81, 0 14.5 M0 43.5 C1.02 34.69, 0.36 25.55, 0 14.5 M0 14.5 C-0.61 6.4, 4.8 -1.36, 14.5 0 M0 14.5 C-0.87 3.1, 3.36 0.04, 14.5 0" stroke="#1e1e1e" stroke-width="2" fill="none"></path></g><g transform="translate(677.966667175293 152.5) rotate(0 82.03333282470703 12.5)"><text x="82.03333282470703" y="17.52" font-family="Virgil, Segoe UI Emoji" font-size="20px" fill="#1e1e1e" text-anchor="middle" style="white-space: pre;" direction="ltr" dominant-baseline="alphabetic">remote interface</text></g><g stroke-linecap="round" transform="translate(363 131) rotate(0 75 36.5)"><path d="M18.25 0 C51.02 -0.86, 79.61 0.11, 131.75 0 M131.75 0 C142.5 1.56, 149.08 7.23, 150 18.25 M150 18.25 C149.91 31.9, 151.53 44.86, 150 54.75 M150 54.75 C150.02 65.09, 145.75 71.49, 131.75 73 M131.75 73 C93.4 73.38, 50.27 74.48, 18.25 73 M18.25 73 C5.9 74.74, 1.18 66.19, 0 54.75 M0 54.75 C-1.24 41.24, -1.85 23.72, 0 18.25 M0 18.25 C-0.94 5.6, 4.78 -1.01, 18.25 0" stroke="#1e1e1e" stroke-width="2.5" fill="none" stroke-dasharray="1.5 8"></path></g><g transform="translate(410.1499996185303 155) rotate(0 27.850000381469727 12.5)"><text x="27.850000381469727" y="17.52" font-family="Virgil, Segoe UI Emoji" font-size="20px" fill="#1e1e1e" text-anchor="middle" style="white-space: pre;" direction="ltr" dominant-baseline="alphabetic">macro</text></g><g stroke-linecap="round"><g transform="translate(374 91) rotate(0 -0.5 16.5)"><path d="M-0.08 0.16 C-0.28 5.57, -0.52 27.04, -0.64 32.49 M-0.79 -0.24 C-1.08 5.23, -0.84 27.33, -0.89 32.93" stroke="#1e1e1e" stroke-width="2" fill="none"></path></g><g transform="translate(374 91) rotate(0 -0.5 16.5)"><path d="M-6.56 17.43 C-4.07 24.14, -2.81 30.05, -0.89 32.93 M-6.56 17.43 C-5.36 21.95, -3.43 26.34, -0.89 32.93" stroke="#1e1e1e" stroke-width="2" fill="none"></path></g><g transform="translate(374 91) rotate(0 -0.5 16.5)"><path d="M4.73 17.41 C2.72 24.12, -0.51 30.04, -0.89 32.93 M4.73 17.41 C2.83 21.96, 1.65 26.36, -0.89 32.93" stroke="#1e1e1e" stroke-width="2" fill="none"></path></g></g><mask></mask><g transform="translate(389 97.5) rotate(0 49.66666793823242 10)"><text x="0" y="14.016" font-family="Virgil, Segoe UI Emoji" font-size="16px" fill="#1e1e1e" text-anchor="start" style="white-space: pre;" direction="ltr" dominant-baseline="alphabetic">processed by</text></g><g stroke-linecap="round"><g transform="translate(520 165) rotate(0 64.5 0)"><path d="M0 0 C21.5 0, 107.5 0, 129 0 M0 0 C21.5 0, 107.5 0, 129 0" stroke="#1e1e1e" stroke-width="2" fill="none"></path></g><g transform="translate(520 165) rotate(0 64.5 0)"><path d="M105.51 8.55 C110.45 6.75, 115.39 4.95, 129 0 M105.51 8.55 C112.25 6.1, 119 3.64, 129 0" stroke="#1e1e1e" stroke-width="2" fill="none"></path></g><g transform="translate(520 165) rotate(0 64.5 0)"><path d="M105.51 -8.55 C110.45 -6.75, 115.39 -4.95, 129 0 M105.51 -8.55 C112.25 -6.1, 119 -3.64, 129 0" stroke="#1e1e1e" stroke-width="2" fill="none"></path></g></g><mask></mask><g transform="translate(539 134) rotate(0 38.516666412353516 10)"><text x="0" y="14.016" font-family="Virgil, Segoe UI Emoji" font-size="16px" fill="#1e1e1e" text-anchor="start" style="white-space: pre;" direction="ltr" dominant-baseline="alphabetic">generates</text></g><g stroke-linecap="round"><g transform="translate(352.19558675147596 168.0976715994425) rotate(0 -64.5 0)"><path d="M0 0 C-21.5 0, -107.5 0, -129 0 M0 0 C-21.5 0, -107.5 0, -129 0" stroke="#1e1e1e" stroke-width="2" fill="none"></path></g><g transform="translate(352.19558675147596 168.0976715994425) rotate(0 -64.5 0)"><path d="M-105.51 -8.55 C-114.27 -5.36, -123.02 -2.18, -129 0 M-105.51 -8.55 C-113.4 -5.68, -121.3 -2.8, -129 0" stroke="#1e1e1e" stroke-width="2" fill="none"></path></g><g transform="translate(352.19558675147596 168.0976715994425) rotate(0 -64.5 0)"><path d="M-105.51 8.55 C-114.27 5.36, -123.02 2.18, -129 0 M-105.51 8.55 C-113.4 5.68, -121.3 2.8, -129 0" stroke="#1e1e1e" stroke-width="2" fill="none"></path></g></g><mask></mask><g transform="translate(256.51054485853774 137.0976715994425) rotate(0 38.516666412353516 10)"><text x="0" y="14.016" font-family="Virgil, Segoe UI Emoji" font-size="16px" fill="#1e1e1e" text-anchor="start" style="white-space: pre;" direction="ltr" dominant-baseline="alphabetic">generates</text></g><g stroke-linecap="round" transform="translate(10 139) rotate(0 103 29)"><path d="M14.5 0 C71.41 -1.05, 126.1 1.03, 191.5 0 M14.5 0 C83.67 -0.19, 152.91 1.44, 191.5 0 M191.5 0 C203.15 1.92, 205.47 3.08, 206 14.5 M191.5 0 C202.08 -1.23, 206.12 6.37, 206 14.5 M206 14.5 C204.26 27.81, 206.43 36.71, 206 43.5 M206 14.5 C206.62 19.82, 206.06 26.13, 206 43.5 M206 43.5 C204.54 54.57, 203.01 57.32, 191.5 58 M206 43.5 C207.05 53.22, 199.2 56.28, 191.5 58 M191.5 58 C151.07 60.07, 111.44 57.92, 14.5 58 M191.5 58 C143.3 55.57, 93.29 56.65, 14.5 58 M14.5 58 C4.12 57.66, 0.89 51.27, 0 43.5 M14.5 58 C5.31 58.25, 2.27 53.57, 0 43.5 M0 43.5 C-2.05 32.25, 1.31 23.73, 0 14.5 M0 43.5 C0.78 33.04, 0.28 23.7, 0 14.5 M0 14.5 C-0.67 3.11, 4.23 0.71, 14.5 0 M0 14.5 C0.92 4.94, 5.33 2.26, 14.5 0" stroke="#1e1e1e" stroke-width="2" fill="none"></path></g><g transform="translate(38.099998474121094 155.5) rotate(0 74.9000015258789 12.5)"><text x="74.9000015258789" y="17.52" font-family="Virgil, Segoe UI Emoji" font-size="20px" fill="#1e1e1e" text-anchor="middle" style="white-space: pre;" direction="ltr" dominant-baseline="alphabetic">client interface</text></g></svg>