<svg version="1.1" xmlns="http://www.w3.org/2000/svg" viewBox="0 0 560 501" width="1120" height="1002">
  <!-- svg-source:excalidraw -->
  
  <defs>
    <style class="style-fonts">
      @font-face {
        font-family: "Virgil";
        src: url("https://excalidraw.com/Virgil.woff2");
      }
      @font-face {
        font-family: "Cascadia";
        src: url("https://excalidraw.com/Cascadia.woff2");
      }
      @font-face {
        font-family: "Assistant";
        src: url("https://excalidraw.com/Assistant-Regular.woff2");
      }
    </style>
    
  </defs>
  <g stroke-linecap="round" transform="translate(52 398.171875) rotate(0 73 42.5)"><path d="M21.25 0 C55.84 0.24, 87.99 -0.22, 124.75 0 M21.25 0 C61.07 1.29, 101.92 0.56, 124.75 0 M124.75 0 C137.7 -1.19, 144.81 8.82, 146 21.25 M124.75 0 C138.84 1.83, 145.06 9.05, 146 21.25 M146 21.25 C147.19 32.49, 147.19 42.7, 146 63.75 M146 21.25 C145.82 37.34, 144.96 53.54, 146 63.75 M146 63.75 C145.79 76.23, 137.49 83.31, 124.75 85 M146 63.75 C144.02 76.74, 139.94 82.96, 124.75 85 M124.75 85 C95.84 85.05, 66.7 87.01, 21.25 85 M124.75 85 C103.9 85.11, 81.64 84.28, 21.25 85 M21.25 85 C8.91 85.17, -0.75 79.83, 0 63.75 M21.25 85 C8.21 85.4, -0.23 76.94, 0 63.75 M0 63.75 C-0.37 52.82, -0.09 43.55, 0 21.25 M0 63.75 C-0.49 48.6, -0.35 33.02, 0 21.25 M0 21.25 C-1.05 8.04, 6.9 1.48, 21.25 0 M0 21.25 C2.21 7.14, 7.77 -0.81, 21.25 0" stroke="#1e1e1e" stroke-width="2" fill="none"></path></g><g stroke-linecap="round"><g transform="translate(118.21875 397.0703125) rotate(0 -0.5 -43)"><path d="M0 0 C-0.17 -14.33, -0.83 -71.67, -1 -86 M0 0 C-0.17 -14.33, -0.83 -71.67, -1 -86" stroke="#1e1e1e" stroke-width="2" fill="none"></path></g><g transform="translate(118.21875 397.0703125) rotate(0 -0.5 -43)"><path d="M-8.82 -23.39 C-6.52 -17.28, -4.21 -11.17, 0 0 M-8.82 -23.39 C-6.81 -18.06, -4.8 -12.72, 0 0" stroke="#1e1e1e" stroke-width="2" fill="none"></path></g><g transform="translate(118.21875 397.0703125) rotate(0 -0.5 -43)"><path d="M8.28 -23.59 C6.11 -17.43, 3.95 -11.27, 0 0 M8.28 -23.59 C6.39 -18.21, 4.5 -12.83, 0 0" stroke="#1e1e1e" stroke-width="2" fill="none"></path></g></g><mask></mask><g stroke-linecap="round" transform="translate(52.71875 14) rotate(0 65 40)"><path d="M20 0 C45.53 1.89, 70.72 2.24, 110 0 M20 0 C46.94 0.38, 71.86 -1.45, 110 0 M110 0 C121.59 0.61, 130.32 6.69, 130 20 M110 0 C124.65 -0.12, 129.31 5.17, 130 20 M130 20 C131.54 30.43, 128.67 42.27, 130 60 M130 20 C130.79 30.37, 131.02 41.65, 130 60 M130 60 C130.57 72.9, 122.79 80.78, 110 80 M130 60 C130.14 74.5, 121.85 80.31, 110 80 M110 80 C91.63 81.08, 70.7 80.19, 20 80 M110 80 C82.2 79.75, 54.98 78.79, 20 80 M20 80 C8.2 80.21, 0.18 71.44, 0 60 M20 80 C6.14 81.54, 0.44 72.47, 0 60 M0 60 C-0.65 50.08, 0.62 44.96, 0 20 M0 60 C1.03 45.52, -0.78 31.53, 0 20 M0 20 C1.99 8.51, 6.22 0.3, 20 0 M0 20 C1.99 4.49, 5.64 -0.29, 20 0" stroke="#1e1e1e" stroke-width="2" fill="none"></path></g><g transform="translate(73.43541717529297 29) rotate(0 44.28333282470703 25)"><text x="44.28333282470703" y="17.52" font-family="Virgil, Segoe UI Emoji" font-size="20px" fill="#1e1e1e" text-anchor="middle" style="white-space: pre;" direction="ltr" dominant-baseline="alphabetic">client </text><text x="44.28333282470703" y="42.519999999999996" font-family="Virgil, Segoe UI Emoji" font-size="20px" fill="#1e1e1e" text-anchor="middle" style="white-space: pre;" direction="ltr" dominant-baseline="alphabetic">interface</text></g><g stroke-linecap="round" transform="translate(52.71875 224) rotate(0 65 40)"><path d="M20 0 C54.08 2.87, 90.86 0.43, 110 0 M20 0 C47.91 0.72, 75.99 1.5, 110 0 M110 0 C125.29 -1.19, 128.81 5.18, 130 20 M110 0 C124.49 1.41, 129.38 7.4, 130 20 M130 20 C130.38 31.25, 131.28 38.44, 130 60 M130 20 C129.98 29.83, 130.88 37.73, 130 60 M130 60 C128.64 72.61, 122.17 81.89, 110 80 M130 60 C131.13 73.7, 121.98 78.13, 110 80 M110 80 C76.8 79.31, 45.13 79.51, 20 80 M110 80 C75.81 81.55, 42.21 80.31, 20 80 M20 80 C6.26 79.45, -0.91 72.09, 0 60 M20 80 C6.88 81.51, -1.59 74.34, 0 60 M0 60 C-1.53 46.49, -2.18 33.25, 0 20 M0 60 C-1.09 50.12, 0.61 39.83, 0 20 M0 20 C0.82 7.42, 4.86 -0.82, 20 0 M0 20 C1.02 5.33, 6.49 1.47, 20 0" stroke="#1e1e1e" stroke-width="2" fill="none"></path></g><g transform="translate(73.43541717529297 239) rotate(0 44.28333282470703 25)"><text x="44.28333282470703" y="17.52" font-family="Virgil, Segoe UI Emoji" font-size="20px" fill="#1e1e1e" text-anchor="middle" style="white-space: pre;" direction="ltr" dominant-baseline="alphabetic">remote </text><text x="44.28333282470703" y="42.519999999999996" font-family="Virgil, Segoe UI Emoji" font-size="20px" fill="#1e1e1e" text-anchor="middle" style="white-space: pre;" direction="ltr" dominant-baseline="alphabetic">interface</text></g><g stroke-linecap="round" transform="translate(331.21875 10) rotate(0 68 43.5)"><path d="M5.13 5.79 C5.13 5.79, 5.13 5.79, 5.13 5.79 M5.13 5.79 C5.13 5.79, 5.13 5.79, 5.13 5.79 M0.67 23.11 C7.23 16.06, 8.2 11.02, 20.36 0.47 M0.67 23.11 C8.2 15.09, 13.74 7.48, 20.36 0.47 M0.81 35.15 C6.41 28.55, 14.51 20.09, 30.99 0.44 M0.81 35.15 C12.91 22.55, 24.99 7.94, 30.99 0.44 M0.94 47.19 C10.41 35.04, 23.77 22.81, 41.62 0.4 M0.94 47.19 C10.53 37.61, 17.77 27.02, 41.62 0.4 M0.42 59.99 C16.13 43.8, 29.05 29.11, 52.25 0.37 M0.42 59.99 C13.1 43.82, 28.81 29.08, 52.25 0.37 M1.21 71.27 C27.06 45.29, 50.72 14.18, 62.88 0.33 M1.21 71.27 C18.92 50.87, 37.98 28.97, 62.88 0.33 M4.62 79.54 C23.59 55.68, 43.48 34.82, 73.51 0.3 M4.62 79.54 C30.61 50.04, 56.55 19.63, 73.51 0.3 M10.66 84.79 C38.07 53.73, 62.42 23.75, 84.14 0.26 M10.66 84.79 C27.77 65.73, 43.03 46.07, 84.14 0.26 M19.98 86.27 C43.9 56.78, 68.08 31.8, 94.77 0.23 M19.98 86.27 C48.3 53.01, 78.55 20.22, 94.77 0.23 M29.95 86.99 C48.17 65.44, 67.48 45.53, 105.4 0.19 M29.95 86.99 C56.49 54.8, 84.92 24.29, 105.4 0.19 M40.58 86.95 C61.65 63.58, 83.46 38.85, 115.37 0.91 M40.58 86.95 C69.08 51.34, 99.53 17.97, 115.37 0.91 M51.21 86.92 C69.74 64.07, 89.27 42.89, 124.69 2.39 M51.21 86.92 C69.07 68.25, 86.42 49.31, 124.69 2.39 M61.84 86.88 C85.2 57.17, 110.52 31.38, 131.38 6.88 M61.84 86.88 C78.27 66.6, 96.37 45.88, 131.38 6.88 M72.47 86.85 C97.57 58.78, 120.94 32.53, 135.45 14.4 M72.47 86.85 C88.54 67.79, 104.38 49.73, 135.45 14.4 M83.1 86.81 C93.66 75.17, 104.6 59.8, 136.24 25.68 M83.1 86.81 C96.13 71.54, 109.25 57.07, 136.24 25.68 M93.73 86.78 C102.76 75.33, 112.18 62.09, 136.37 37.72 M93.73 86.78 C106.33 73.48, 118.32 59.06, 136.37 37.72 M104.36 86.74 C110.23 78.6, 118.04 69.24, 135.85 50.52 M104.36 86.74 C116.84 72.57, 130.36 57.78, 135.85 50.52 M114.33 87.46 C122.06 79.86, 128.21 74.37, 135.98 62.56 M114.33 87.46 C118.48 82.47, 123.09 76.85, 135.98 62.56 M127.59 84.41 C128.86 82.23, 129.57 81.02, 133.49 77.62 M127.59 84.41 C129.88 81.31, 131.98 78.65, 133.49 77.62 M8.13 83.62 C8.13 83.62, 8.13 83.62, 8.13 83.62 M8.13 83.62 C8.13 83.62, 8.13 83.62, 8.13 83.62 M23.95 86.77 C17.46 79.9, 8.65 71.21, 0.55 66.43 M23.95 86.77 C18.74 82.57, 11.26 77.27, 0.55 66.43 M35.99 86.64 C22.96 75.3, 12.24 64.52, 0.52 55.8 M35.99 86.64 C28.49 79.98, 21.27 72.75, 0.52 55.8 M48.03 86.51 C34.05 72.13, 17.56 61.9, 0.48 45.17 M48.03 86.51 C31.9 72.38, 17.96 60.09, 0.48 45.17 M60.07 86.37 C45.76 74.1, 34.19 60.65, 0.45 34.54 M60.07 86.37 C38.58 66.74, 17.66 48.09, 0.45 34.54 M72.11 86.24 C50.41 70.7, 32.38 50.82, 0.41 23.91 M72.11 86.24 C58.65 74.08, 44.56 60.59, 0.41 23.91 M84.91 86.76 C58.98 62.85, 33.43 41.35, 1.89 14.6 M84.91 86.76 C64.25 68.34, 45.11 51.77, 1.89 14.6 M96.95 86.63 C65.14 61.57, 36 32.6, 4.87 6.59 M96.95 86.63 C64.01 58.81, 31.47 30.31, 4.87 6.59 M108.99 86.5 C76.29 57.14, 39.6 24.64, 11.63 1.86 M108.99 86.5 C75.94 58.11, 44.26 31.6, 11.63 1.86 M119.52 85.05 C95.89 64.84, 74.14 45, 21.41 -0.24 M119.52 85.05 C83.69 52.67, 45.14 21.88, 21.41 -0.24 M128.54 82.29 C101.67 57.08, 71.17 33.72, 32.69 -1.03 M128.54 82.29 C105.16 61.04, 81.05 40.54, 32.69 -1.03 M133.79 76.26 C103.93 51.68, 74 25.22, 45.49 -0.5 M133.79 76.26 C107.39 52.97, 82.82 31.08, 45.49 -0.5 M136.02 67.59 C113.47 48.66, 87.7 26.03, 57.53 -0.64 M136.02 67.59 C109.34 43.99, 83.91 21, 57.53 -0.64 M135.98 56.96 C115.81 42.37, 97.36 25.17, 69.57 -0.77 M135.98 56.96 C119.89 42.31, 103.29 29.07, 69.57 -0.77 M135.95 46.33 C121.66 32.18, 104.83 16.99, 81.61 -0.9 M135.95 46.33 C120.41 31.88, 103.64 17.42, 81.61 -0.9 M135.92 35.7 C121.41 22.9, 106.05 9.33, 93.65 -1.04 M135.92 35.7 C126.27 27.63, 117.61 20.05, 93.65 -1.04 M135.88 25.07 C129.41 18.04, 122.72 14.46, 106.45 -0.51 M135.88 25.07 C126.45 16.03, 116.15 7.7, 106.45 -0.51 M135.85 14.44 C131.25 10.54, 130.14 9.76, 120.75 1.32 M135.85 14.44 C130.66 9.24, 125.6 4.11, 120.75 1.32" stroke="#ced4da" stroke-width="1" fill="none"></path><path d="M21.75 0 C46.87 1.12, 73.94 -0.4, 114.25 0 M21.75 0 C40.52 0.59, 60.75 -0.84, 114.25 0 M114.25 0 C129.35 0.93, 136.53 6.97, 136 21.75 M114.25 0 C127.27 -2.23, 135.66 8.21, 136 21.75 M136 21.75 C135.18 35.95, 134.7 50.29, 136 65.25 M136 21.75 C136.43 38.28, 135.28 55.97, 136 65.25 M136 65.25 C134.8 78.63, 127.31 87.37, 114.25 87 M136 65.25 C135.23 81.2, 129.97 88.81, 114.25 87 M114.25 87 C86.55 88.58, 56.91 85.69, 21.75 87 M114.25 87 C85.29 86.29, 57.7 85.75, 21.75 87 M21.75 87 C8.2 86.85, 0.65 78.6, 0 65.25 M21.75 87 C7.83 88.79, -0.39 80.13, 0 65.25 M0 65.25 C1.28 53.66, -0.27 41.31, 0 21.75 M0 65.25 C-0.12 55.15, 0.65 46.92, 0 21.75 M0 21.75 C-1.73 7.33, 9.15 -0.21, 21.75 0 M0 21.75 C1.3 6.15, 7.42 1.98, 21.75 0" stroke="#1e1e1e" stroke-width="2" fill="none"></path></g><g transform="translate(356.6187515258789 28.5) rotate(0 42.599998474121094 25)"><text x="42.599998474121094" y="17.52" font-family="Virgil, Segoe UI Emoji" font-size="20px" fill="#1e1e1e" text-anchor="middle" style="white-space: pre;" direction="ltr" dominant-baseline="alphabetic">context </text><text x="42.599998474121094" y="42.519999999999996" font-family="Virgil, Segoe UI Emoji" font-size="20px" fill="#1e1e1e" text-anchor="middle" style="white-space: pre;" direction="ltr" dominant-baseline="alphabetic">manager</text></g><g stroke-linecap="round" transform="translate(300.71875 221) rotate(0 99.5 40)"><path d="M2.85 7.77 C2.85 7.77, 2.85 7.77, 2.85 7.77 M2.85 7.77 C2.85 7.77, 2.85 7.77, 2.85 7.77 M1.01 22.08 C7.76 14.31, 14.51 6.55, 20.04 0.19 M1.01 22.08 C8.37 13.62, 15.72 5.16, 20.04 0.19 M1.14 34.12 C10.5 23.35, 19.86 12.59, 30.67 0.16 M1.14 34.12 C12.44 21.12, 23.74 8.12, 30.67 0.16 M1.28 46.16 C11.59 34.3, 21.9 22.44, 41.3 0.12 M1.28 46.16 C9.55 36.65, 17.81 27.14, 41.3 0.12 M0.75 58.96 C16.3 41.08, 31.84 23.19, 51.93 0.09 M0.75 58.96 C17.6 39.57, 34.45 20.19, 51.93 0.09 M2.2 69.49 C20.36 48.6, 38.51 27.71, 62.56 0.05 M2.2 69.49 C16.48 53.07, 30.75 36.64, 62.56 0.05 M6.93 76.25 C21.63 59.34, 36.33 42.42, 73.19 0.02 M6.93 76.25 C24.77 55.72, 42.61 35.2, 73.19 0.02 M14.93 79.23 C34 57.29, 53.07 35.36, 83.82 -0.01 M14.93 79.23 C40.02 50.37, 65.1 21.51, 83.82 -0.01 M24.25 80.7 C46.86 54.69, 69.48 28.67, 94.45 -0.05 M24.25 80.7 C44.92 56.93, 65.58 33.15, 94.45 -0.05 M34.88 80.67 C60.86 50.79, 86.83 20.91, 105.08 -0.08 M34.88 80.67 C49.63 63.7, 64.39 46.72, 105.08 -0.08 M45.51 80.64 C73.43 48.52, 101.35 16.4, 115.71 -0.12 M45.51 80.64 C65.12 58.08, 84.72 35.52, 115.71 -0.12 M56.14 80.6 C74.19 59.84, 92.24 39.08, 126.34 -0.15 M56.14 80.6 C72.14 62.19, 88.15 43.78, 126.34 -0.15 M66.77 80.57 C86.69 57.65, 106.62 34.73, 136.97 -0.19 M66.77 80.57 C93.54 49.78, 120.3 18.98, 136.97 -0.19 M77.4 80.53 C91.92 63.83, 106.44 47.12, 147.6 -0.22 M77.4 80.53 C91.71 64.07, 106.02 47.61, 147.6 -0.22 M88.03 80.5 C113.15 51.6, 138.26 22.71, 158.23 -0.26 M88.03 80.5 C111.93 53, 135.84 25.5, 158.23 -0.26 M98.66 80.46 C125.11 50.04, 151.55 19.62, 168.2 0.46 M98.66 80.46 C123.48 51.91, 148.29 23.37, 168.2 0.46 M109.29 80.43 C125.93 61.29, 142.57 42.14, 178.83 0.43 M109.29 80.43 C135.71 50.03, 162.14 19.64, 178.83 0.43 M119.92 80.39 C142.48 54.45, 165.03 28.5, 188.15 1.9 M119.92 80.39 C136.22 61.65, 152.52 42.9, 188.15 1.9 M130.55 80.36 C149.2 58.9, 167.85 37.45, 194.84 6.4 M130.55 80.36 C150.18 57.77, 169.82 35.19, 194.84 6.4 M141.18 80.33 C158.48 60.42, 175.79 40.51, 198.26 14.67 M141.18 80.33 C154.57 64.92, 167.96 49.52, 198.26 14.67 M151.81 80.29 C166.65 63.22, 181.49 46.15, 199.05 25.95 M151.81 80.29 C161.51 69.13, 171.22 57.97, 199.05 25.95 M162.44 80.26 C174.77 66.07, 187.1 51.89, 199.18 37.99 M162.44 80.26 C172.05 69.21, 181.65 58.15, 199.18 37.99 M173.07 80.22 C179.83 72.44, 186.59 64.66, 199.31 50.03 M173.07 80.22 C182.29 69.61, 191.52 59, 199.31 50.03 M184.36 79.43 C189.75 73.22, 195.15 67.02, 199.45 62.07 M184.36 79.43 C188.43 74.75, 192.5 70.06, 199.45 62.07 M5.02 75.01 C5.02 75.01, 5.02 75.01, 5.02 75.01 M5.02 75.01 C5.02 75.01, 5.02 75.01, 5.02 75.01 M22.34 79.47 C15.97 73.93, 9.59 68.39, 0.45 60.45 M22.34 79.47 C14.83 72.95, 7.33 66.42, 0.45 60.45 M34.38 79.34 C20.84 67.57, 7.3 55.8, 0.42 49.82 M34.38 79.34 C21.43 68.08, 8.48 56.83, 0.42 49.82 M46.42 79.21 C30.29 65.18, 14.15 51.16, 0.38 39.19 M46.42 79.21 C28.16 63.33, 9.9 47.46, 0.38 39.19 M58.46 79.07 C41.06 63.95, 23.66 48.82, 0.35 28.56 M58.46 79.07 C45.56 67.86, 32.67 56.65, 0.35 28.56 M71.26 79.6 C47.01 58.52, 22.77 37.44, 0.32 17.93 M71.26 79.6 C51.42 62.35, 31.58 45.1, 0.32 17.93 M83.3 79.46 C56.96 56.57, 30.62 33.67, 2.55 9.27 M83.3 79.46 C65.34 63.85, 47.38 48.24, 2.55 9.27 M95.34 79.33 C63.51 51.66, 31.68 23.99, 7.79 3.23 M95.34 79.33 C71.39 58.51, 47.43 37.69, 7.79 3.23 M107.38 79.2 C86 60.61, 64.63 42.03, 16.82 0.47 M107.38 79.2 C83.1 58.09, 58.82 36.98, 16.82 0.47 M119.42 79.06 C91.42 54.73, 63.43 30.39, 28.1 -0.32 M119.42 79.06 C83.55 47.88, 47.67 16.7, 28.1 -0.32 M132.22 79.59 C101.99 53.31, 71.77 27.04, 40.14 -0.45 M132.22 79.59 C111.28 61.39, 90.35 43.19, 40.14 -0.45 M144.26 79.45 C111.69 51.14, 79.12 22.83, 52.18 -0.58 M144.26 79.45 C118.06 56.68, 91.86 33.9, 52.18 -0.58 M156.3 79.32 C124.59 51.76, 92.88 24.19, 64.22 -0.72 M156.3 79.32 C133.17 59.21, 110.04 39.1, 64.22 -0.72 M168.34 79.19 C142.77 56.96, 117.2 34.73, 77.02 -0.2 M168.34 79.19 C138.32 53.09, 108.3 26.99, 77.02 -0.2 M180.38 79.05 C146.77 49.84, 113.17 20.63, 89.06 -0.33 M180.38 79.05 C155.39 57.33, 130.4 35.61, 89.06 -0.33 M190.16 76.95 C158.74 49.64, 127.33 22.33, 101.1 -0.46 M190.16 76.95 C160.03 50.77, 129.91 24.58, 101.1 -0.46 M196.16 71.57 C169.18 48.11, 142.19 24.66, 113.14 -0.59 M196.16 71.57 C170.31 49.1, 144.46 26.63, 113.14 -0.59 M199.15 63.57 C182.03 48.69, 164.92 33.81, 125.18 -0.73 M199.15 63.57 C180.01 46.93, 160.87 30.3, 125.18 -0.73 M199.11 52.94 C181.78 37.87, 164.45 22.8, 137.98 -0.2 M199.11 52.94 C176.87 33.6, 154.62 14.26, 137.98 -0.2 M199.08 42.31 C185.95 30.9, 172.83 19.49, 150.02 -0.34 M199.08 42.31 C185.9 30.85, 172.73 19.4, 150.02 -0.34 M199.04 31.68 C185.96 20.31, 172.89 8.94, 162.06 -0.47 M199.04 31.68 C187.45 21.6, 175.85 11.52, 162.06 -0.47 M199.01 21.05 C193.9 16.61, 188.79 12.17, 174.1 -0.6 M199.01 21.05 C192.06 15, 185.11 8.96, 174.1 -0.6 M197.46 9.1 C193.95 6.05, 190.44 3, 188.41 1.23 M197.46 9.1 C195.42 7.33, 193.38 5.55, 188.41 1.23" stroke="#ffd8a8" stroke-width="1" fill="none"></path><path d="M20 0 C70.15 0, 120.3 0, 179 0 M179 0 C192.33 0, 199 6.67, 199 20 M199 20 C199 34.03, 199 48.07, 199 60 M199 60 C199 73.33, 192.33 80, 179 80 M179 80 C117.25 80, 55.51 80, 20 80 M20 80 C6.67 80, 0 73.33, 0 60 M0 60 C0 49.36, 0 38.72, 0 20 M0 20 C0 6.67, 6.67 0, 20 0" stroke="#1e1e1e" stroke-width="2.5" fill="none" stroke-dasharray="1.5 8"></path></g><g transform="translate(321.2020797729492 236) rotate(0 79.01667022705078 25)"><text x="79.01667022705078" y="17.52" font-family="Virgil, Segoe UI Emoji" font-size="20px" fill="#1e1e1e" text-anchor="middle" style="white-space: pre;" direction="ltr" dominant-baseline="alphabetic">duplicate filter </text><text x="79.01667022705078" y="42.519999999999996" font-family="Virgil, Segoe UI Emoji" font-size="20px" fill="#1e1e1e" text-anchor="middle" style="white-space: pre;" direction="ltr" dominant-baseline="alphabetic">(optional)</text></g><g stroke-linecap="round" transform="translate(297.71875 406) rotate(0 99.49999999999994 40.5)"><path d="M2.91 7.83 C2.91 7.83, 2.91 7.83, 2.91 7.83 M2.91 7.83 C2.91 7.83, 2.91 7.83, 2.91 7.83 M4.36 18.36 C11.58 11.4, 14.39 6.76, 20.11 0.25 M4.36 18.36 C7.49 15.23, 10.97 10.28, 20.11 0.25 M3.84 31.16 C9.63 22.83, 19.78 13.4, 30.74 0.22 M3.84 31.16 C13.62 19.79, 25.22 8.03, 30.74 0.22 M3.97 43.2 C14.07 29.07, 28.72 15.27, 41.37 0.18 M3.97 43.2 C16.21 29.05, 27.73 15.91, 41.37 0.18 M4.1 55.24 C19.67 34.83, 37.28 14.86, 52 0.15 M4.1 55.24 C20.64 37.28, 34.83 20.14, 52 0.15 M3.58 68.04 C22.05 46.77, 40.87 25.42, 62.63 0.11 M3.58 68.04 C17.67 48.95, 34.15 31.26, 62.63 0.11 M6.34 77.06 C27.55 52.75, 50.67 26.39, 73.26 0.08 M6.34 77.06 C23.9 59.78, 39.12 40.57, 73.26 0.08 M13.03 81.55 C26.45 65.99, 41.66 47.7, 83.89 0.04 M13.03 81.55 C37.67 54.27, 61.69 27.21, 83.89 0.04 M22.35 83.03 C43.6 59.93, 63.69 37.05, 94.52 0.01 M22.35 83.03 C50.33 49.11, 78.92 17.43, 94.52 0.01 M32.98 82.99 C61.24 53.16, 88.47 19.36, 105.15 -0.02 M32.98 82.99 C53.42 58.12, 73.1 36.29, 105.15 -0.02 M43.61 82.96 C62.77 59.4, 86.37 36.28, 115.78 -0.06 M43.61 82.96 C72.5 51.44, 99.09 19.14, 115.78 -0.06 M54.24 82.92 C71.57 62.79, 85.29 45.05, 126.41 -0.09 M54.24 82.92 C72.09 61.67, 91.29 38.7, 126.41 -0.09 M64.87 82.89 C86.12 57.24, 108.49 32.35, 137.04 -0.13 M64.87 82.89 C78.5 64.9, 93.07 48.7, 137.04 -0.13 M75.5 82.86 C100.1 52.59, 127.07 22.2, 147.67 -0.16 M75.5 82.86 C95.63 59.53, 116.29 37.29, 147.67 -0.16 M86.13 82.82 C106.61 60.5, 124.42 38.18, 158.3 -0.2 M86.13 82.82 C101.52 64.53, 118.66 45.33, 158.3 -0.2 M96.76 82.79 C123.02 54.35, 144.68 23.4, 168.93 -0.23 M96.76 82.79 C120.69 54.59, 147.65 24.63, 168.93 -0.23 M107.39 82.75 C127.18 61.05, 144.01 40.99, 178.9 0.49 M107.39 82.75 C122.97 65.54, 139.34 47.19, 178.9 0.49 M118.02 82.72 C147.83 51.03, 172.84 21.04, 188.22 1.96 M118.02 82.72 C143.96 53.33, 168.29 24.89, 188.22 1.96 M128.65 82.68 C146.13 63.14, 165.95 43.15, 194.91 6.46 M128.65 82.68 C149.89 57.88, 171.38 32.54, 194.91 6.46 M139.28 82.65 C154.78 65.09, 169.53 49.4, 200.95 11.71 M139.28 82.65 C162.39 55.75, 185.87 27.49, 200.95 11.71 M149.91 82.61 C164.67 65.14, 179.74 50.33, 204.36 19.97 M149.91 82.61 C164.45 65.37, 178.22 49.19, 204.36 19.97 M160.54 82.58 C173.77 68.09, 185.24 54.43, 204.5 32.01 M160.54 82.58 C176.16 63.64, 192.69 45.3, 204.5 32.01 M171.17 82.55 C182.21 70.09, 193.77 54.7, 203.97 44.81 M171.17 82.55 C182.49 68.85, 192.55 57.4, 203.97 44.81 M181.14 83.27 C187.17 75.65, 189.11 70.02, 200.17 61.38 M181.14 83.27 C186.39 77.99, 191.93 71.68, 200.17 61.38 M5.33 76.17 C5.33 76.17, 5.33 76.17, 5.33 76.17 M5.33 76.17 C5.33 76.17, 5.33 76.17, 5.33 76.17 M21.15 79.32 C16.78 73.1, 12.09 70.27, 2.28 62.92 M21.15 79.32 C14.06 73.92, 9.41 68.47, 2.28 62.92 M33.94 79.84 C23.94 68.52, 13.52 60.59, 2.25 52.29 M33.94 79.84 C27.63 73.14, 19.54 68.21, 2.25 52.29 M45.98 79.71 C30.88 68.64, 17.91 55.58, 2.21 41.66 M45.98 79.71 C36.13 70.95, 25.26 60.66, 2.21 41.66 M58.03 79.58 C42.2 66.02, 24.71 50.72, 2.18 31.03 M58.03 79.58 C37.95 63.29, 18.88 45.02, 2.18 31.03 M70.07 79.44 C56.51 67.83, 41.99 57.5, 2.14 20.4 M70.07 79.44 C51.83 62.93, 34.44 47.04, 2.14 20.4 M82.11 79.31 C66.3 62.05, 46.78 46.47, 3.62 11.08 M82.11 79.31 C53.61 54.57, 25.12 30.12, 3.62 11.08 M94.9 79.83 C70.94 56.24, 43.07 33.91, 6.6 3.08 M94.9 79.83 C73.2 61.24, 52.59 42.69, 6.6 3.08 M106.94 79.7 C87.03 62.9, 68.09 43.82, 12.61 -2.31 M106.94 79.7 C79.82 57.4, 52.87 32.08, 12.61 -2.31 M118.98 79.57 C87.52 50.44, 58 24.84, 23.14 -3.75 M118.98 79.57 C93.63 57.08, 69.2 37.47, 23.14 -3.75 M131.03 79.43 C108.06 60.77, 87.22 42.78, 35.18 -3.88 M131.03 79.43 C96.7 51.36, 63.54 20.56, 35.18 -3.88 M143.07 79.3 C105.16 46.31, 68.81 14.62, 47.97 -3.36 M143.07 79.3 C113.33 52.96, 83.6 26.59, 47.97 -3.36 M155.86 79.82 C118.95 47.3, 81.93 16.75, 60.01 -3.5 M155.86 79.82 C130.83 58.52, 106.64 37.14, 60.01 -3.5 M167.9 79.69 C149.54 63.21, 128.22 44.89, 72.05 -3.63 M167.9 79.69 C139.09 54.16, 109.45 28.94, 72.05 -3.63 M179.94 79.56 C150.23 53.01, 116.22 22.43, 84.1 -3.76 M179.94 79.56 C151.71 54.39, 121.88 29.91, 84.1 -3.76 M189.72 77.46 C169.14 60.93, 147.11 39.7, 96.89 -3.24 M189.72 77.46 C170.19 60.07, 148.73 41.64, 96.89 -3.24 M195.72 72.08 C170.36 52.2, 147.93 29.11, 108.93 -3.37 M195.72 72.08 C171.96 51.22, 147.17 31.1, 108.93 -3.37 M200.97 66.04 C170.83 39.65, 143.93 15.29, 120.97 -3.5 M200.97 66.04 C174.62 42.31, 149.89 19.6, 120.97 -3.5 M202.45 56.72 C179.89 38.76, 161.23 20.75, 133.01 -3.64 M202.45 56.72 C176.4 34.28, 150.32 11.54, 133.01 -3.64 M202.41 46.09 C189.95 36.52, 177.74 25.04, 145.05 -3.77 M202.41 46.09 C178.75 26.84, 156.3 5.99, 145.05 -3.77 M202.38 35.46 C188.26 24.99, 176.85 14.93, 157.85 -3.25 M202.38 35.46 C191.36 25.16, 179.94 15.75, 157.85 -3.25 M202.34 24.83 C194.74 17.55, 187.55 12.89, 169.89 -3.38 M202.34 24.83 C192.56 16.53, 183.07 8.61, 169.89 -3.38 M200.8 12.89 C192.68 7.61, 186.1 0.86, 181.93 -3.51 M200.8 12.89 C197.52 9.22, 193.5 5.42, 181.93 -3.51" stroke="#ced4da" stroke-width="1" fill="none"></path><path d="M20.25 0 C53.66 -0.89, 86.84 0.86, 178.75 0 M20.25 0 C65.8 -0.97, 108.85 -0.65, 178.75 0 M178.75 0 C192.5 1.59, 199.52 5.27, 199 20.25 M178.75 0 C192.37 0.16, 198.64 6.13, 199 20.25 M199 20.25 C200.9 33.51, 199.53 47.32, 199 60.75 M199 20.25 C200.06 29.21, 198.55 38.08, 199 60.75 M199 60.75 C199.37 75.3, 193.92 81.54, 178.75 81 M199 60.75 C197.34 75.27, 193.4 83.05, 178.75 81 M178.75 81 C134.72 79.78, 92.17 78.34, 20.25 81 M178.75 81 C145.59 80.13, 112.96 80.8, 20.25 81 M20.25 81 C6.3 82.9, -1.69 73.87, 0 60.75 M20.25 81 C7.66 82.33, -0.69 72.8, 0 60.75 M0 60.75 C1.88 45.81, 1.91 35.02, 0 20.25 M0 60.75 C0.22 45.81, -0.09 29.55, 0 20.25 M0 20.25 C1.71 5.2, 6.67 -1.26, 20.25 0 M0 20.25 C1 5.12, 5.15 -1.7, 20.25 0" stroke="#1e1e1e" stroke-width="2" fill="none"></path></g><g transform="translate(346.9520835876465 434) rotate(0 50.266666412353516 12.5)"><text x="50.266666412353516" y="17.52" font-family="Virgil, Segoe UI Emoji" font-size="20px" fill="#1e1e1e" text-anchor="middle" style="white-space: pre;" direction="ltr" dominant-baseline="alphabetic">dispatcher</text></g><g stroke-linecap="round"><g transform="translate(186.71875 52.68197419782135) rotate(0 68.9343987449721 0.2653748628036894)"><path d="M0 0 C22.98 0.09, 114.89 0.44, 137.87 0.53 M0 0 C22.98 0.09, 114.89 0.44, 137.87 0.53" stroke="#1e1e1e" stroke-width="2" fill="none"></path></g><g transform="translate(186.71875 52.68197419782135) rotate(0 68.9343987449721 0.2653748628036894)"><path d="M23.53 -8.46 C16.34 -5.87, 9.15 -3.29, 0 0 M23.53 -8.46 C14.38 -5.17, 5.23 -1.88, 0 0" stroke="#1e1e1e" stroke-width="2" fill="none"></path></g><g transform="translate(186.71875 52.68197419782135) rotate(0 68.9343987449721 0.2653748628036894)"><path d="M23.46 8.64 C16.29 6, 9.12 3.36, 0 0 M23.46 8.64 C14.34 5.28, 5.21 1.92, 0 0" stroke="#1e1e1e" stroke-width="2" fill="none"></path></g><g transform="translate(186.71875 52.68197419782135) rotate(0 68.9343987449721 0.2653748628036894)"><path d="M114.34 8.99 C121.53 6.41, 128.72 3.82, 137.87 0.53 M114.34 8.99 C123.49 5.7, 132.64 2.41, 137.87 0.53" stroke="#1e1e1e" stroke-width="2" fill="none"></path></g><g transform="translate(186.71875 52.68197419782135) rotate(0 68.9343987449721 0.2653748628036894)"><path d="M114.41 -8.11 C121.58 -5.47, 128.75 -2.83, 137.87 0.53 M114.41 -8.11 C123.53 -4.75, 132.66 -1.39, 137.87 0.53" stroke="#1e1e1e" stroke-width="2" fill="none"></path></g></g><mask></mask><g transform="translate(228.91981515732562 15.5234375) rotate(0 26.733333587646484 10)"><text x="0" y="14.016" font-family="Virgil, Segoe UI Emoji" font-size="16px" fill="#1e1e1e" text-anchor="start" style="white-space: pre;" direction="ltr" dominant-baseline="alphabetic">invokes</text></g><g transform="translate(227.25314912644183 72.5234375) rotate(0 28.399999618530273 10)"><text x="0" y="14.016" font-family="Virgil, Segoe UI Emoji" font-size="16px" fill="#1e1e1e" text-anchor="start" style="white-space: pre;" direction="ltr" dominant-baseline="alphabetic">returns</text></g><g stroke-linecap="round"><g transform="translate(338.71875 104.0234375) rotate(0 0.5 56.5)"><path d="M0 0 C0.17 18.83, 0.83 94.17, 1 113 M0 0 C0.17 18.83, 0.83 94.17, 1 113" stroke="#1e1e1e" stroke-width="2" fill="none"></path></g><g transform="translate(338.71875 104.0234375) rotate(0 0.5 56.5)"><path d="M8.76 23.42 C5.5 14.7, 2.24 5.98, 0 0 M8.76 23.42 C5.32 14.21, 1.87 5.01, 0 0" stroke="#1e1e1e" stroke-width="2" fill="none"></path></g><g transform="translate(338.71875 104.0234375) rotate(0 0.5 56.5)"><path d="M-8.34 23.57 C-5.24 14.79, -2.13 6.02, 0 0 M-8.34 23.57 C-5.06 14.3, -1.78 5.04, 0 0" stroke="#1e1e1e" stroke-width="2" fill="none"></path></g></g><mask></mask><g transform="translate(348.71875 140.5234375) rotate(0 48.71666717529297 20)"><text x="48.71666717529297" y="14.016" font-family="Virgil, Segoe UI Emoji" font-size="16px" fill="#1e1e1e" text-anchor="middle" style="white-space: pre;" direction="ltr" dominant-baseline="alphabetic">Transmission</text><text x="48.71666717529297" y="34.016" font-family="Virgil, Segoe UI Emoji" font-size="16px" fill="#1e1e1e" text-anchor="middle" style="white-space: pre;" direction="ltr" dominant-baseline="alphabetic">Protocol</text></g><g transform="translate(465.875 150.5234375) rotate(0 30.883333206176758 10)"><text x="0" y="14.016" font-family="Virgil, Segoe UI Emoji" font-size="16px" fill="#1e1e1e" text-anchor="start" style="white-space: pre;" direction="ltr" dominant-baseline="alphabetic">receives</text></g><g transform="translate(268.875 150.5234375) rotate(0 28.399999618530273 10)"><text x="0" y="14.016" font-family="Virgil, Segoe UI Emoji" font-size="16px" fill="#1e1e1e" text-anchor="start" style="white-space: pre;" direction="ltr" dominant-baseline="alphabetic">returns</text></g><g stroke-linecap="round"><g transform="translate(454.875 105.5234375) rotate(0 0.5 55)"><path d="M0 0 C0.17 18.33, 0.83 91.67, 1 110 M0 0 C0.17 18.33, 0.83 91.67, 1 110" stroke="#1e1e1e" stroke-width="2" fill="none"></path></g><g transform="translate(454.875 105.5234375) rotate(0 0.5 55)"><path d="M-7.76 86.59 C-4.84 94.4, -1.91 102.21, 1 110 M-7.76 86.59 C-5.05 93.84, -2.33 101.1, 1 110" stroke="#1e1e1e" stroke-width="2" fill="none"></path></g><g transform="translate(454.875 105.5234375) rotate(0 0.5 55)"><path d="M9.34 86.43 C6.55 94.3, 3.77 102.16, 1 110 M9.34 86.43 C6.75 93.74, 4.17 101.04, 1 110" stroke="#1e1e1e" stroke-width="2" fill="none"></path></g></g><mask></mask><g stroke-linecap="round"><g transform="translate(457 400.0703125) rotate(0 -0.5 -47.5)"><path d="M0 0 C-0.17 -15.83, -0.83 -79.17, -1 -95 M0 0 C-0.17 -15.83, -0.83 -79.17, -1 -95" stroke="#1e1e1e" stroke-width="2" fill="none"></path></g><g transform="translate(457 400.0703125) rotate(0 -0.5 -47.5)"><path d="M-8.8 -23.4 C-6.85 -18.23, -4.91 -13.06, 0 0 M-8.8 -23.4 C-5.67 -15.08, -2.54 -6.77, 0 0" stroke="#1e1e1e" stroke-width="2" fill="none"></path></g><g transform="translate(457 400.0703125) rotate(0 -0.5 -47.5)"><path d="M8.3 -23.58 C6.47 -18.37, 4.63 -13.16, 0 0 M8.3 -23.58 C5.35 -15.2, 2.4 -6.82, 0 0" stroke="#1e1e1e" stroke-width="2" fill="none"></path></g></g><mask></mask><g stroke-linecap="round"><g transform="translate(340 305.5703125) rotate(0 0 47)"><path d="M0 0 C0 15.67, 0 78.33, 0 94 M0 0 C0 15.67, 0 78.33, 0 94" stroke="#1e1e1e" stroke-width="2" fill="none"></path></g><g transform="translate(340 305.5703125) rotate(0 0 47)"><path d="M8.55 23.49 C5.89 16.18, 3.23 8.87, 0 0 M8.55 23.49 C6.38 17.52, 4.2 11.54, 0 0" stroke="#1e1e1e" stroke-width="2" fill="none"></path></g><g transform="translate(340 305.5703125) rotate(0 0 47)"><path d="M-8.55 23.49 C-5.89 16.18, -3.23 8.87, 0 0 M-8.55 23.49 C-6.38 17.52, -4.2 11.54, 0 0" stroke="#1e1e1e" stroke-width="2" fill="none"></path></g></g><mask></mask><g stroke-linecap="round"><g transform="translate(203.065601255028 447.8049376371963) rotate(0 44.9343987449721 -0.2346251371963035)"><path d="M0 0 C14.98 -0.08, 74.89 -0.39, 89.87 -0.47 M0 0 C14.98 -0.08, 74.89 -0.39, 89.87 -0.47" stroke="#1e1e1e" stroke-width="2" fill="none"></path></g><g transform="translate(203.065601255028 447.8049376371963) rotate(0 44.9343987449721 -0.2346251371963035)"><path d="M23.45 -8.67 C17.83 -6.6, 12.22 -4.52, 0 0 M23.45 -8.67 C15.92 -5.89, 8.39 -3.1, 0 0" stroke="#1e1e1e" stroke-width="2" fill="none"></path></g><g transform="translate(203.065601255028 447.8049376371963) rotate(0 44.9343987449721 -0.2346251371963035)"><path d="M23.54 8.43 C17.9 6.41, 12.27 4.39, 0 0 M23.54 8.43 C15.98 5.72, 8.42 3.02, 0 0" stroke="#1e1e1e" stroke-width="2" fill="none"></path></g><g transform="translate(203.065601255028 447.8049376371963) rotate(0 44.9343987449721 -0.2346251371963035)"><path d="M66.42 8.2 C72.03 6.13, 77.65 4.05, 89.87 -0.47 M66.42 8.2 C73.95 5.42, 81.48 2.63, 89.87 -0.47" stroke="#1e1e1e" stroke-width="2" fill="none"></path></g><g transform="translate(203.065601255028 447.8049376371963) rotate(0 44.9343987449721 -0.2346251371963035)"><path d="M66.33 -8.9 C71.97 -6.88, 77.6 -4.86, 89.87 -0.47 M66.33 -8.9 C73.89 -6.19, 81.45 -3.48, 89.87 -0.47" stroke="#1e1e1e" stroke-width="2" fill="none"></path></g></g><mask></mask><g transform="translate(214.01666641235363 391.0703125) rotate(0 29.983333587646484 20)"><text x="29.983333587646484" y="14.016" font-family="Virgil, Segoe UI Emoji" font-size="16px" fill="#1e1e1e" text-anchor="middle" style="white-space: pre;" direction="ltr" dominant-baseline="alphabetic">route</text><text x="29.983333587646484" y="34.016" font-family="Virgil, Segoe UI Emoji" font-size="16px" fill="#1e1e1e" text-anchor="middle" style="white-space: pre;" direction="ltr" dominant-baseline="alphabetic">request</text></g><g transform="translate(210.9833335876466 464.0703125) rotate(0 33.016666412353516 10)"><text x="33.016666412353516" y="14.016" font-family="Virgil, Segoe UI Emoji" font-size="16px" fill="#1e1e1e" text-anchor="middle" style="white-space: pre;" direction="ltr" dominant-baseline="alphabetic">response</text></g><g transform="translate(472.11666679382324 342.5703125) rotate(0 30.883333206176758 10)"><text x="0" y="14.016" font-family="Virgil, Segoe UI Emoji" font-size="16px" fill="#1e1e1e" text-anchor="start" style="white-space: pre;" direction="ltr" dominant-baseline="alphabetic">receives</text></g><g transform="translate(268.6000003814697 342.5703125) rotate(0 28.399999618530273 10)"><text x="0" y="14.016" font-family="Virgil, Segoe UI Emoji" font-size="16px" fill="#1e1e1e" text-anchor="start" style="white-space: pre;" direction="ltr" dominant-baseline="alphabetic">returns</text></g><g transform="translate(130.1166648864746 333.0703125) rotate(0 43.88333511352539 20)"><text x="43.88333511352539" y="14.016" font-family="Virgil, Segoe UI Emoji" font-size="16px" fill="#1e1e1e" text-anchor="middle" style="white-space: pre;" direction="ltr" dominant-baseline="alphabetic">implemented</text><text x="43.88333511352539" y="34.016" font-family="Virgil, Segoe UI Emoji" font-size="16px" fill="#1e1e1e" text-anchor="middle" style="white-space: pre;" direction="ltr" dominant-baseline="alphabetic">by</text></g><g stroke-linecap="round"><g transform="translate(10 137.671875) rotate(0 270 -1.5)"><path d="M0 0 C90 -0.5, 450 -2.5, 540 -3" stroke="#868e96" stroke-width="1.5" fill="none" stroke-dasharray="1.5 7"></path></g></g><mask></mask><g transform="translate(50.602081298828125 142.671875) rotate(0 67.11666870117188 10)"><text x="67.11666870117188" y="14.016" font-family="Virgil, Segoe UI Emoji" font-size="16px" fill="#868e96" text-anchor="middle" style="white-space: pre;" direction="ltr" dominant-baseline="alphabetic">network boundary</text></g><g stroke-linecap="round" transform="translate(48 402.171875) rotate(0 73 42.5)"><path d="M21.25 0 C58.01 0.16, 93.66 -0.7, 124.75 0 M21.25 0 C59.27 1.76, 99.29 -0.08, 124.75 0 M124.75 0 C138.38 1.07, 145.94 5.4, 146 21.25 M124.75 0 C139.33 -0.37, 146.38 6.47, 146 21.25 M146 21.25 C148.08 34.17, 146.62 44.43, 146 63.75 M146 21.25 C145.97 33.31, 146.35 45.91, 146 63.75 M146 63.75 C144.84 78.1, 139.34 86.56, 124.75 85 M146 63.75 C146.72 75.87, 138.91 83.27, 124.75 85 M124.75 85 C90.62 87.41, 54.84 86.53, 21.25 85 M124.75 85 C97.54 85.3, 69.13 84.53, 21.25 85 M21.25 85 C8.89 83.58, -0.01 79.07, 0 63.75 M21.25 85 C9.23 84.37, 0.13 77.49, 0 63.75 M0 63.75 C0.65 50.12, -2.21 37.46, 0 21.25 M0 63.75 C0.3 51.71, -0.77 38.73, 0 21.25 M0 21.25 C0.74 5.37, 5.81 0.65, 21.25 0 M0 21.25 C1.09 7.5, 8.69 -0.9, 21.25 0" stroke="#1e1e1e" stroke-width="2" fill="none"></path></g><g stroke-linecap="round" transform="translate(44.71875 406) rotate(0 73 42.5)"><path d="M21.25 0 C60.67 1.7, 98.98 1.57, 124.75 0 C136.18 -2.53, 148.09 5.52, 146 21.25 C142.82 30.37, 142.79 44.74, 146 63.75 C143.23 75.37, 139.07 86.36, 124.75 85 C86.79 87.29, 51.22 84.53, 21.25 85 C5.84 84.01, -1.48 76.94, 0 63.75 C-1.64 44.76, -0.1 28.75, 0 21.25 C1.91 4.04, 8.16 -3.28, 21.25 0" stroke="none" stroke-width="0" fill="#ffffff"></path><path d="M21.25 0 C48.93 -1.04, 73.73 -0.61, 124.75 0 M21.25 0 C43.74 1.57, 67.32 1.76, 124.75 0 M124.75 0 C140.82 -1.9, 145.35 8.4, 146 21.25 M124.75 0 C138.89 -1.61, 148.17 8.47, 146 21.25 M146 21.25 C144.82 29.84, 146.13 41.06, 146 63.75 M146 21.25 C146.14 31.28, 146.52 40.87, 146 63.75 M146 63.75 C146.84 78.46, 139.4 84.79, 124.75 85 M146 63.75 C146.95 75.79, 137.68 84.39, 124.75 85 M124.75 85 C88.74 87.1, 55.07 86.53, 21.25 85 M124.75 85 C92.32 84.71, 59.99 85.36, 21.25 85 M21.25 85 C8.62 85.06, -0.17 78.37, 0 63.75 M21.25 85 C9.27 84.2, 1.83 78.14, 0 63.75 M0 63.75 C-0.06 48.24, -0.99 31.81, 0 21.25 M0 63.75 C0.47 51.38, -0.22 37.87, 0 21.25 M0 21.25 C-1.76 7.16, 5.64 1.08, 21.25 0 M0 21.25 C1.44 6.17, 7.93 -1.15, 21.25 0" stroke="#1e1e1e" stroke-width="2" fill="none"></path></g><g transform="translate(64.28541564941406 423.5) rotate(0 53.43333435058594 25)"><text x="53.43333435058594" y="17.52" font-family="Virgil, Segoe UI Emoji" font-size="20px" fill="#1e1e1e" text-anchor="middle" style="white-space: pre;" direction="ltr" dominant-baseline="alphabetic">remote </text><text x="53.43333435058594" y="42.519999999999996" font-family="Virgil, Segoe UI Emoji" font-size="20px" fill="#1e1e1e" text-anchor="middle" style="white-space: pre;" direction="ltr" dominant-baseline="alphabetic">implementer</text></g></svg>